:version 1.10
:name ASF
:units
  mass 1
  length 1
  angle deg
:documentation
  ASF file generated by Kaydara
:root
  axis xyz
  order  tx ty tz rx ry rz
  position 0 0 0
  orientation 0 0 0
:bonedata
  begin
    id 1
    name SpineDummy
    direction 0.999998 -0.00179978 1.38929e-006
    length 3.60008
    axis 0 0 0 xyz
  end
  begin
    id 2
    name Spine
    direction 0.964365 0.262802 0.0305839
    length 8.13928
    axis 1.33928 -1.75354 15.2838 xyz
    dof rx ry rz
  end
  begin
    id 3
    name Spine1
    direction 0.811168 0.572065 0.12144
    length 7.14954
    axis 2.2224 -6.9761 35.2157 xyz
    dof rx ry rz
  end
  begin
    id 4
    name Neck
    direction 0 0 0
    length 0
    axis 2.2224 -6.9761 35.2157 xyz
    dof rx ry rz
  end
  begin
    id 5
    name HeadDummy
    direction 0.810939 0.572387 0.121455
    length 3.55534
    axis 2.2224 -6.9761 35.2157 xyz
  end
  begin
    id 6
    name Head
    direction 0.998226 -0.000232542 0.0595419
    length 7.35666
    axis -3.03688 -3.41352 -0.0133467 xyz
    dof rx ry rz
  end
  begin
    id 7
    name R_ClavicleDummy
    direction 0.531669 -0.194489 -0.824319
    length 2.49392
    axis 2.2224 -6.9761 35.2157 xyz
  end
  begin
    id 8
    name R_Clavicle
    direction -0.155119 0.0480802 -0.986725
    length 4.485
    axis -54.2764 80.6538 162.779 xyz
    dof rx ry rz
  end
  begin
    id 9
    name R_UpperArm
    direction -0.955567 0.200068 -0.216484
    length 10.1122
    axis -72.9943 12.5026 168.175 xyz
    dof rx ry rz
  end
  begin
    id 10
    name R_Forearm
    direction -0.61433 0.385743 0.688332
    length 9.39148
    axis -117.015 -43.4982 147.875 xyz
    dof rx ry rz
  end
  begin
    id 11
    name R_Hand
    direction -0.699429 0.0170333 0.714499
    length 3.66324
    axis -45.0303 -36.7097 175.478 xyz
    dof rx ry rz
  end
  begin
    id 12
    name L_ClavicleDummy
    direction 0.40287 -0.36502 0.839319
    length 2.49392
    axis 2.2224 -6.9761 35.2157 xyz
  end
  begin
    id 13
    name L_Clavicle
    direction -0.231271 -0.0726419 0.970174
    length 4.485
    axis 18.4357 -75.9711 -162.563 xyz
    dof rx ry rz
  end
  begin
    id 14
    name L_UpperArm
    direction -0.917494 0.144359 0.370629
    length 10.1122
    axis 56.0417 -21.7544 171.058 xyz
    dof rx ry rz
  end
  begin
    id 15
    name L_Forearm
    direction -0.496786 0.615074 -0.612281
    length 9.39148
    axis 89.8094 37.7546 128.927 xyz
    dof rx ry rz
  end
  begin
    id 16
    name L_Hand
    direction -0.409932 0.64962 -0.640274
    length 3.66324
    axis -0.424369 32.133 128.52 xyz
    dof rx ry rz
  end
  begin
    id 17
    name L_ThighDummy
    direction -1.84081e-006 1.87549e-006 1
    length 3.13049
    axis 0 0 0 xyz
  end
  begin
    id 18
    name L_Thigh
    direction -0.947739 0.307978 0.083308
    length 17.9961
    axis 173.219 -4.77873 161.998 xyz
    dof rx ry rz
  end
  begin
    id 19
    name L_Calf
    direction -0.728814 -0.684427 0.0197583
    length 13.3367
    axis 167.331 -1.13214 -136.799 xyz
    dof rx ry rz
  end
  begin
    id 20
    name L_Foot
    direction -0.9028 0.418719 0.0981191
    length 5.8674
    axis 163.436 11.5135 -155.37 xyz
    dof rx ry rz
  end
  begin
    id 21
    name L_Toe0
    direction -0.35341 0.886259 0.299411
    length 4.75286
    axis 169.316 -17.4222 111.74 xyz
    dof rx ry rz
  end
  begin
    id 22
    name R_ThighDummy
    direction 9.32778e-007 -8.82053e-007 -1
    length 3.13049
    axis 0 0 0 xyz
  end
  begin
    id 23
    name R_Thigh
    direction -0.925064 0.37528 -0.0585023
    length 17.9961
    axis -178.698 3.35385 157.919 xyz
    dof rx ry rz
  end
  begin
    id 24
    name R_Calf
    direction -0.68969 -0.718776 -0.0876886
    length 13.3367
    axis -160.504 5.03065 -133.817 xyz
    dof rx ry rz
  end
  begin
    id 25
    name R_Foot
    direction -0.857405 0.418858 -0.299022
    length 5.8674
    axis -161.328 4.38911 -154.413 xyz
    dof rx ry rz
  end
  begin
    id 26
    name R_Toe0
    direction -0.100745 0.952789 -0.286433
    length 4.75286
    axis 171.683 16.6445 96.0359 xyz
    dof rx ry rz
  end
:hierarchy
  begin
    root SpineDummy L_ThighDummy R_ThighDummy
    SpineDummy Spine
    Spine Spine1
    Spine1 Neck
    Neck HeadDummy R_ClavicleDummy L_ClavicleDummy
    HeadDummy Head
    R_ClavicleDummy R_Clavicle
    R_Clavicle R_UpperArm
    R_UpperArm R_Forearm
    R_Forearm R_Hand
    L_ClavicleDummy L_Clavicle
    L_Clavicle L_UpperArm
    L_UpperArm L_Forearm
    L_Forearm L_Hand
    L_ThighDummy L_Thigh
    L_Thigh L_Calf
    L_Calf L_Foot
    L_Foot L_Toe0
    R_ThighDummy R_Thigh
    R_Thigh R_Calf
    R_Calf R_Foot
    R_Foot R_Toe0
  end

:SAMPLES-PER-SECOND 30
:FULLY-SPECIFIED
:DEGREES
61
root  -3.39543 32.192 -32.1664 95.3291 4.83181 86.924
Spine  5.63413 18.1845 -9.296
Spine1  4.42794 -12.2974 1.49083
Neck  3.97569e-016 0 -2.38542e-015
Head  -5.06033 -4.8842 23.5288
R_Clavicle  0.381053 -15.8395 1.44553
R_UpperArm  18.6935 7.54218 14.9138
R_Forearm  11.4022 -40.114 20.285
R_Hand  -1.19977 9.9346 -20.5132
L_Clavicle  -0.680085 21.1281 -1.60301
L_UpperArm  -17.7854 13.235 30.7661
L_Forearm  3.30266 37.1422 40.7108
L_Hand  0.024445 -1.25973 0.537149
L_Thigh  -6.72639 -0.479262 6.83242
L_Calf  3.06733 -5.13576 30.2992
L_Foot  0.871549 20.4685 -10.9924
L_Toe0  0.505156 0.0341134 -6.1361
R_Thigh  5.17915 9.04173 -26.0959
R_Calf  3.6949 13.1558 35.0676
R_Foot  -2.32826 -2.51348 11.2399
R_Toe0  -1.78853 -0.272789 -17.3235
62
root  -3.37353 31.9012 -31.4065 97.1624 4.77897 87.9318
Spine  5.05747 15.8564 -8.39163
Spine1  3.79623 -11.9523 2.77505
Neck  3.97569e-016 0 -2.38542e-015
Head  -5.35958 -4.31498 19.5325
R_Clavicle  0.379032 -15.3736 1.45846
R_UpperArm  21.815 6.90284 14.8137
R_Forearm  8.02935 -41.7934 21.057
R_Hand  -1.08227 10.0805 -19.7226
L_Clavicle  -0.687135 20.9637 -1.90759
L_UpperArm  -17.057 11.2018 28.0302
L_Forearm  0.844894 36.3398 40.0335
L_Hand  -0.0191261 -1.52363 -0.662862
L_Thigh  -1.77554 -3.27263 7.53225
L_Calf  0.49508 -3.28553 25.5743
L_Foot  1.01203 17.9399 -9.48823
L_Toe0  0.505156 0.0337911 -6.1361
R_Thigh  8.71772 8.48483 -26.9752
R_Calf  2.19084 11.2323 33.7769
R_Foot  -2.178 -1.25558 13.7883
R_Toe0  -1.79832 -0.275489 -17.422
63
root  -3.30672 31.6387 -30.6022 98.6329 4.77772 89.08
Spine  4.5 13.5921 -7.60278
Spine1  3.20931 -11.7209 4.58412
Neck  3.97569e-016 0 -2.38542e-015
Head  -5.42501 -4.09962 16.4518
R_Clavicle  0.354209 -14.6782 1.16458
R_UpperArm  24.1703 4.7436 15.5865
R_Forearm  7.5707 -41.9782 21.4837
R_Hand  -0.970846 9.8896 -18.9423
L_Clavicle  -0.664576 19.9387 -2.63817
L_UpperArm  -15.2764 9.92424 24.764
L_Forearm  -3.14913 34.5461 38.9343
L_Hand  -0.065116 -1.96976 -2.22519
L_Thigh  1.38704 -5.45269 7.8399
L_Calf  -1.29082 -2.7951 20.7788
L_Foot  2.31564 16.2633 -4.82195
L_Toe0  0.505156 0.033393 -6.13611
R_Thigh  11.1812 7.66407 -28.0098
R_Calf  1.20709 9.62405 32.2574
R_Foot  -1.89676 -0.022781 15.6592
R_Toe0  -1.72073 -0.252772 -16.6593
64
root  -3.19553 31.4971 -29.7861 98.9964 4.72438 90.2187
Spine  4.15598 11.14 -7.06851
Spine1  2.90629 -11.2307 6.1456
Neck  3.97569e-016 0 -2.38542e-015
Head  -4.64749 -4.32907 15.0422
R_Clavicle  0.326729 -14.8829 0.731377
R_UpperArm  23.7206 2.61364 17.4236
R_Forearm  9.42128 -42.0059 21.2909
R_Hand  -0.923177 9.58045 -18.5692
L_Clavicle  -0.636925 19.2008 -3.0654
L_UpperArm  -11.12 9.28573 22.0581
L_Forearm  -9.25552 30.8442 37.1142
L_Hand  -0.0920483 -2.45376 -3.61268
L_Thigh  1.37306 -6.63924 7.33395
L_Calf  -1.58406 -2.42978 18.0677
L_Foot  3.25833 15.4834 -1.5148
L_Toe0  0.505156 0.0329412 -6.13611
R_Thigh  11.6437 6.17595 -27.1994
R_Calf  0.125534 8.28635 26.8935
R_Foot  -1.49333 0.67164 14.8665
R_Toe0  -1.20107 -0.123617 -11.4936
65
root  -3.03374 31.3298 -28.9445 98.8593 4.62512 91.4745
Spine  3.7169 7.70489 -7.00953
Spine1  2.68657 -9.47983 7.3856
Neck  3.97569e-016 0 -2.38542e-015
Head  -3.02542 -4.57979 14.3967
R_Clavicle  0.32236 -16.1311 0.366584
R_UpperArm  21.458 1.3447 19.8808
R_Forearm  10.5282 -42.3562 20.8977
R_Hand  -0.907553 9.50039 -18.4475
L_Clavicle  -0.634314 19.2092 -2.95594
L_UpperArm  -7.7978 8.71703 19.7135
L_Forearm  -13.3668 26.6182 34.6843
L_Hand  -0.118582 -2.47361 -4.60737
L_Thigh  0.767108 -7.67031 6.56317
L_Calf  -1.79219 -2.08954 15.6566
L_Foot  3.88331 14.8674 0.808488
L_Toe0  0.505156 0.0324579 -6.13611
R_Thigh  12.6208 3.94899 -24.7715
R_Calf  -2.63692 5.86131 18.5505
R_Foot  -1.05541 0.674176 11.4132
R_Toe0  -0.26084 -0.0551753 -2.03852
66
root  -2.8334 31.0581 -28.0494 98.8851 4.83779 92.6879
Spine  3.01433 4.08643 -7.35685
Spine1  2.30782 -6.95805 8.99683
Neck  3.97569e-016 0 -2.38542e-015
Head  -1.04715 -4.47929 13.3947
R_Clavicle  0.327529 -17.235 0.0911776
R_UpperArm  21.2318 -0.121659 22.113
R_Forearm  8.34361 -42.7755 20.9929
R_Hand  -0.946654 9.75041 -18.7589
L_Clavicle  -0.618938 19.0111 -2.80514
L_UpperArm  -8.84755 7.82858 16.8151
L_Forearm  -12.5631 24.1845 31.3257
L_Hand  -0.160728 -1.93331 -5.17159
L_Thigh  0.513298 -8.81619 5.72254
L_Calf  -2.11424 -1.60701 12.2049
L_Foot  4.89476 13.8584 4.66716
L_Toe0  0.505156 0.0319654 -6.13612
R_Thigh  13.0481 1.14799 -21.2116
R_Calf  -6.85838 2.58329 8.01773
R_Foot  0.13955 1.84226 2.79429
R_Toe0  -0.390324 1.10874 12.238
67
root  -2.61775 30.7728 -27.1022 98.7407 5.73582 93.7238
Spine  2.33915 1.5059 -7.84027
Spine1  1.80517 -5.04534 11.2557
Neck  3.97569e-016 0 -2.38542e-015
Head  0.961149 -4.14329 12.1731
R_Clavicle  0.329965 -17.766 -0.0913108
R_UpperArm  24.4801 -2.37094 23.9695
R_Forearm  3.60777 -43.3425 21.871
R_Hand  -1.09415 10.0345 -19.7985
L_Clavicle  -0.569512 18.0911 -2.8892
L_UpperArm  -8.90572 6.23041 13.1876
L_Forearm  -11.6748 22.5306 28.6188
L_Hand  -0.193814 -1.42335 -5.39999
L_Thigh  0.11767 -9.54791 4.12171
L_Calf  -2.27806 -1.16063 8.99021
L_Foot  5.84287 12.9388 8.38752
L_Toe0  0.505156 0.0314858 -6.13612
R_Thigh  12.0568 -2.10794 -17.4699
R_Calf  -12.0736 -0.732666 -2.27878
R_Foot  2.67969 7.5723 -9.55015
R_Toe0  -4.59334 4.65781 20.2753
68
root  -2.40751 30.6104 -26.087 97.9931 7.1641 94.2191
Spine  1.90119 0.260001 -8.5005
Spine1  1.37104 -3.75224 13.2644
Neck  3.97569e-016 0 -2.38542e-015
Head  2.96324 -3.91476 11.6876
R_Clavicle  0.349135 -18.6206 -0.0497552
R_UpperArm  28.4087 -4.35964 26.2183
R_Forearm  -0.489474 -44.0552 23.1821
R_Hand  -1.27528 10.0457 -21.03
L_Clavicle  -0.526655 17.3443 -2.81705
L_UpperArm  -6.19522 3.66736 9.51877
L_Forearm  -11.8158 21.5895 27.1865
L_Hand  -0.204927 -1.24077 -5.45296
L_Thigh  -0.443348 -9.38997 1.46433
L_Calf  -2.43908 -0.859985 6.86969
L_Foot  6.63498 12.0599 11.7011
L_Toe0  0.505156 0.0310414 -6.13613
R_Thigh  10.844 -4.04792 -14.8695
R_Calf  -13.2204 -3.20358 -9.99754
R_Foot  2.78642 7.46622 -14.0203
R_Toe0  -6.23988 3.07361 6.70594
69
root  -2.2207 30.6619 -25.0211 96.791 8.3893 94.1582
Spine  1.50427 -0.523365 -9.47525
Spine1  1.07539 -2.13262 13.9483
Neck  3.97569e-016 0 -2.38542e-015
Head  5.13949 -3.92905 12.4492
R_Clavicle  0.384709 -20.098 0.231984
R_UpperArm  31.1321 -5.52385 29.2782
R_Forearm  -2.46983 -44.5604 24.4326
R_Hand  -1.35431 9.86669 -21.5755
L_Clavicle  -0.521577 17.3624 -2.32283
L_UpperArm  -1.66172 0.864208 6.44465
L_Forearm  -11.7221 21.4128 26.923
L_Hand  -0.206443 -1.09366 -5.3013
L_Thigh  -0.661506 -8.74734 -1.89659
L_Calf  -2.97835 -0.815173 6.59128
L_Foot  7.08903 11.1329 14.1196
L_Toe0  0.505156 0.0306543 -6.13613
R_Thigh  9.96272 -5.4163 -12.4637
R_Calf  -11.5866 -4.57747 -14.3771
R_Foot  2.65318 6.89105 -13.323
R_Toe0  -4.16192 0.779072 -5.43008
70
root  -2.07893 30.8797 -23.98 95.2831 8.98468 93.9314
Spine  0.962806 -1.58788 -10.5758
Spine1  0.739048 -0.0421671 13.1243
Neck  3.97569e-016 0 -2.38542e-015
Head  7.89778 -4.206 14.2023
R_Clavicle  0.406208 -21.1697 0.487287
R_UpperArm  33.2213 -6.81526 32.452
R_Forearm  -2.63461 -44.3269 25.3206
R_Hand  -1.33398 9.70489 -21.4395
L_Clavicle  -0.512915 17.3157 -1.80944
L_UpperArm  1.91587 -0.783449 4.44185
L_Forearm  -10.1573 21.713 27.3757
L_Hand  -0.190541 -0.899154 -4.68401
L_Thigh  -0.818735 -8.12496 -5.29838
L_Calf  -3.76361 -1.01302 8.05867
L_Foot  7.21188 10.3339 15.4333
L_Toe0  0.505156 0.0303468 -6.13613
R_Thigh  8.9967 -6.30174 -9.67
R_Calf  -8.36251 -4.8252 -15.1855
R_Foot  2.3746 6.13016 -10.5339
R_Toe0  -0.132305 -0.307793 -13.6114
71
root  -1.99312 31.2287 -22.9777 93.6132 9.21336 93.6156
Spine  0.178457 -2.8445 -11.487
Spine1  0.118644 2.25822 11.3546
Neck  3.97569e-016 0 -2.38542e-015
Head  11.475 -4.81875 16.4587
R_Clavicle  0.405649 -21.139 0.462154
R_UpperArm  35.4156 -8.81037 34.9338
R_Forearm  -1.61608 -43.3988 25.9043
R_Hand  -1.30372 9.51619 -21.2307
L_Clavicle  -0.48063 16.6217 -1.71103
L_UpperArm  2.90086 -0.930885 3.9547
L_Forearm  -7.91113 22.1573 28.0513
L_Hand  -0.147121 -0.818458 -3.56975
L_Thigh  -1.55041 -7.27523 -8.8095
L_Calf  -4.09971 -1.4257 11.088
L_Foot  7.19838 10.0246 15.7636
L_Toe0  0.508075 0.0301558 -6.13779
R_Thigh  7.68493 -6.58642 -6.8159
R_Calf  -5.55524 -3.95195 -12.4035
R_Foot  2.20465 5.4972 -9.75996
R_Toe0  1.90816 -0.406529 -13.5759
